# xmcd CD database file
#
# Track frame offsets:
#	150
#	8577
#	22301
#	29656
#	40948
#	54771
#	72675
#	85084
#	99942
#	111950
#	126735
#	136591
#	147420
#	160006
#	170684
#	180817
#	207755
#
# Disc length: 2776 seconds
#
# Revision: 0
# Processed by: cddbd v1.5.2PL0 Copyright (c) Steve Scherf et al.
# Submitted via: CDex 1.70beta1
#
DISCID=e60ad611
DTITLE=Pacifik - Velka vlakova loupez
DYEAR=2004
DGENRE=Country
TTITLE0=Zlato
TTITLE1=Uz kone me vitaj
TTITLE2=Zvedava pisen
TTITLE3=Vsiva lod
TTITLE4=Vzdaleny Pacifik
TTITLE5=Morytat o rezniku Peroutkovi
TTITLE6=Listopad
TTITLE7=Mississippi Blues (Charlie)
TTITLE8=Oregon (Touha zit)
TTITLE9=Nekdo si piska
TTITLE10=Jim z fregaty
TTITLE11=Klara
TTITLE12=Cinska ctvrt
TTITLE13=Neznama zeme
TTITLE14=Tak sel cas (Kdyz jsi byl malej kluk)
TTITLE15=Velka vlakova loupez
TTITLE16=DataTrack 17
EXTD=YEAR: 2004
EXTT0=
EXTT1=
EXTT2=
EXTT3=
EXTT4=
EXTT5=
EXTT6=
EXTT7=
EXTT8=
EXTT9=
EXTT10=
EXTT11=
EXTT12=
EXTT13=
EXTT14=
EXTT15=
EXTT16=
PLAYORDER=
